<?xml version="1.0" encoding="utf-8"?>
<!-- Generator: Adobe Illustrator 21.0.0, SVG Export Plug-In . SVG Version: 6.00 Build 0)  -->
<svg version="1.1" id="Layer_1" xmlns="http://www.w3.org/2000/svg" xmlns:xlink="http://www.w3.org/1999/xlink" x="0px" y="0px"
	 viewBox="0 0 3375 866" style="enable-background:new 0 0 3375 866;" xml:space="preserve">
<style type="text/css">
	.st0{fill:#0C0800;}
</style>
<title>Asset 1</title>
<path d="M3219.7,301.4H3196v-21.2h74.7v21.2H3247v59.8h-27.3L3219.7,301.4z"/>
<path d="M3350.1,361.2l-0.2-36.9l-17.6,29.6h-12l-17.6-28.3v35.6h-24.9v-81h22.4l26.4,43.1l25.7-43.1h22.4l0.2,81H3350.1z"/>
<path id="_Compound_Path_" d="M462,491.2c0,143.8-101.9,237-259.6,237H0V254.9h208.4C362.1,254.9,462,347.4,462,491.2z M304.2,492.6
	c0-70.2-39.3-116.1-99.2-116.1h-50.6v230.2h57.9C268.3,606.7,304.2,562.1,304.2,492.6L304.2,492.6z"/>
<path id="_Compound_Path_2" d="M769.6,352.2v137.1c-67.2-10.1-111.2,14.2-111.2,62.8v176.2H508.6V358.9h149.8v54
	C683.7,374.4,722.3,352.2,769.6,352.2z"/>
<path id="_Compound_Path_3" d="M1658.9,545.9c0,114.1-63.9,187.7-163.1,187.7c-39.3,0-72.6-15.5-96.5-43.2v168.8h-149.8V358.9h149.8
	V396c23.3-27.7,55.3-42.5,92.5-42.5C1593,353.5,1658.9,429.1,1658.9,545.9z M1507.8,541.9c0-43.2-21.3-71.6-54.6-71.6
	c-32.6,0-53.9,28.4-53.9,71.6s21.3,71.6,53.9,71.6C1486.5,613.4,1507.8,585.1,1507.8,541.9z"/>
<path id="_Compound_Path_4" d="M2118.3,545.9c0,114.1-63.9,187.7-163.1,187.7c-39.3,0-72.6-15.5-96.5-43.2v168.8h-149.8V358.9h149.8
	V396c23.3-27.7,55.3-42.5,92.5-42.5C2052.3,353.5,2118.3,429.1,2118.3,545.9z M1967.1,541.9c0-43.2-21.3-71.6-54.6-71.6
	c-32.6,0-53.9,28.4-53.9,71.6s21.3,71.6,53.9,71.6C1945.8,613.4,1967.1,585.1,1967.1,541.9z"/>
<path id="_Compound_Path_5" d="M2314.6,358.9v369.3h-149.8V358.9H2314.6z"/>
<path id="_Compound_Path_6" d="M2778.6,492.6v235.6h-149.8V536.5c0-31.1-17.3-50.6-43.3-50.6c-29.3,0-47.9,23.6-47.9,59.4v183
	h-149.8V358.9h149.8v52.7c24.6-37.8,62.6-59.4,110.5-59.4C2724.7,352.2,2778.6,407.5,2778.6,492.6z"/>
<path id="_Compound_Path_7" d="M3205.3,358.9v338.9c0,102.6-83.2,168.1-203.7,168.1c-69.9,0-133.8-22.3-171.8-47.9l47.3-102
	c32,20.3,75.9,32.4,111.2,32.4c43.9,0,67.9-18.2,67.9-46.6v-35.1c-22,25-53.3,39.2-91.2,39.2c-85.9,0-149.8-69.5-149.8-178.2
	c0-106,61.3-174.2,147.1-174.2c39.3,0,71.2,14.2,93.9,39.8v-34.4H3205.3z M3056.2,531.8c0-40.5-20-66.8-50.6-66.8
	s-50.6,26.3-50.6,66.8c0,39.8,20,66.2,50.6,66.2S3056.2,571.6,3056.2,531.8z"/>
<path id="_Compound_Path_8" d="M2239.3,0c50.4,0.6,93.6,36,104.2,85.3c5.2,24.1,0.6,46.8-9.6,68.7c-9.5,20.4-22.2,38.8-35.1,57.1
	c-22.5,32-40.5,66.2-50.8,104.3c-1.8,6.6-2.8,13.5-4.5,20.2c-0.4,1.5-2,2.8-3,4.2c-1.1-1.3-2.9-2.5-3.2-4
	c-9.9-46.5-30.6-87.9-57.6-126.4c-11.3-16.2-22.4-32.6-32.4-49.7c-11.1-18.8-15.2-39.8-13-61.5c5.4-54,43.4-88.5,87-95.9
	C2227.2,1.3,2233.3,0.8,2239.3,0z M2330.2,111.2c0-51.2-40.2-92.3-90.3-92.4c-50.3-0.1-91.3,41.3-91.3,92.2c0,50.5,40.6,92,90,92
	C2289.8,203,2330.2,162.6,2330.2,111.2L2330.2,111.2z"/>
<path id="_Compound_Path_9" d="M2291.9,79.3c1.2-12.2,2.8-13.5,13.5-10.1c2.5,0.8,5.3,4.4,5.9,7.1c0.7,4-3.1,4.3-6.2,4.6
	c-1.8,0.1-3.6,0.4-6.6,0.7c10.8,8.8,12.1,20.1,11.7,32.3c-0.3,8.7,0,17.5-0.1,26.2c0,9.2-3.7,14.1-10.7,14.3
	c-8.9,0.3-12.6-3.4-13.5-13.4c-0.1-0.4-0.2-0.9-0.4-1.3h-91.7c-0.1,1.3-0.1,2.6-0.3,3.9c-1.1,7.5-5.7,11.1-13.7,10.8
	c-5.9-0.3-10.1-4.9-10.4-11.9c-0.2-4.9,0-9.9,0-14.8c0-5.5,0-11,0-16.5c0-14.6,1.1-17.6,10.8-29.7c-2.4-0.3-4.5-0.5-6.7-0.7
	c-3.1-0.2-7-0.8-6.3-4.6c0.5-2.7,3.8-4.9,5.9-7.3c0.3-0.3,1.1-0.2,1.6-0.3c10.9-1.9,11-1.7,11.8,10.5c2.3-1.8,4.5-2.7,5.7-4.4
	c1.9-3,3.6-6.2,5-9.5c4.7-10.2,12.4-16.2,23.6-16.4c13.6-0.2,27.3-0.1,40.9,0.4c9,0.3,15.2,5.6,19.4,13.5c2.1,3.8,3.8,7.8,6,11.5
	C2288,76,2289.8,77.2,2291.9,79.3z M2197.1,75.9h85.2c-2.4-4.4-4.2-9.9-7.7-13.7c-3.2-3.5-8.1-7.3-12.4-7.6c-14.9-1-29.9-1-44.8,0
	c-4.6,0.3-9.6,4.6-13.2,8.4C2200.9,66.4,2199.3,71.6,2197.1,75.9L2197.1,75.9z M2239.6,115.5c5.3,0,10.5,0.3,15.7-0.1
	c2.6-0.2,6.1-0.8,7.6-2.6c2.2-2.7,3.4-6,3.4-9.4c-0.3-4-4.3-4-7.6-3.9c-13.1,0-26.1,0-39.2,0c-6.5,0-9.4,4.9-5.6,10.2
	c2.4,2.9,5.8,4.9,9.5,5.6C2228.6,116.2,2234.2,115.6,2239.6,115.5L2239.6,115.5z M2200.2,110c0.9-0.9,4-2.6,4.3-4.8
	c0.3-1.8-2.3-5.1-4.3-5.8c-4.9-1.7-10-3-15.1-4c-3.9-0.9-6.6,0.4-7.3,4.8c-0.6,4,0,7.3,4.8,7.9C2187.8,108.6,2193,109.2,2200.2,110z
	 M2301.5,104.2c0.1-6.7-2.5-9.6-6.6-8.8c-5.7,1-11.3,2.5-16.7,4.4c-1.7,0.6-3.8,4.1-3.5,5.8s3.5,4.2,5.4,4.2
	c5.6,0,11.2-0.6,16.6-1.8C2298.9,107.4,2300.6,104.9,2301.5,104.2L2301.5,104.2z"/>
<path id="_Compound_Path_10" d="M1098.5,677.4c0.3-1.9,0.8-3.8,1.4-5.6c8.5-18.5,3.7-35.4-14.8-43.7c-12-5.4-25.3-8.6-38.3-10.8
	c-33.9-5.7-68-6.4-101.9,0.3c-6.5,1.3-12.9,3.3-19,6c-10.8,4.8-16,14.1-14.1,25.8c1.1,6.8,3.8,13.3,5.9,19.9
	c0.6,1.8,1.5,3.6,2.5,6.1c-19.8-12.3-36.4-26.7-50.5-45c0.9-0.3,1.8-0.5,2.8-0.6c11.3,1.5,21.7-3.7,23.4-19.3
	c3.3-30.3-3.6-58-25.5-80.1c-4.2-4.3-10.4-7.2-16.2-9c-8.6-2.7-15.8,1.1-22.1,9.6c-1.5-16.4-0.2-31,2.6-46.2
	c12.2,14.8,25.5,18.8,43.1,12.4c8.2-3,16-6.8,23.5-11.3c43.4-25.2,89.8-33.3,139.1-26c16,2.3,30.7,8.5,44.3,17.4
	c8.3,5.5,16.5,11.1,25,16.3c10.9,6.7,23.6,10.3,36.4,10.3c16,0.2,27.2-7.9,34.2-22.2c1.2-2.5,2.3-5.2,3.4-7.8l2-0.1l5.7,49.9
	c-15.1-9.4-22.3-9.1-33.8,2.4c-17.2,17.1-31.2,36.3-33.1,61.8c-0.5,7.3,0.2,14.7,1.9,21.9c3.4,14.4,11,20,25.8,20.4
	c-14.8,19.8-33.2,34.8-53.7,47.4L1098.5,677.4z M1061.9,536.6c0-31.6-25.2-57.1-56.3-57s-56.4,25.5-56.5,57
	c-0.1,31.8,25.4,57.5,56.8,57.3C1037.1,593.7,1062,568.3,1061.9,536.6L1061.9,536.6z"/>
<path id="_Path_" d="M813.6,436.1l24.3,14.2c-17.1,47-17,94.3,2.1,141c13.9,34.5,38.1,63.9,69.2,84.3c64.3,42.6,147,40.4,209.4-4.3
	c51.9-37.1,100.9-120.7,65.1-221.1l23.3-15c28.9,61.2,27.3,165.1-47.3,238.2c-77.1,75.4-193.8,82.5-277.7,18
	C796.8,625.7,779,515.4,813.6,436.1z"/>
<path id="_Compound_Path_11" d="M902.5,393.8c1.5,3.7,4.3,7.3,4.3,11c0,8-6.9,11.7-13.9,8.4c-1.5-0.7-2.9-1.4-5.5-2.7
	c2,6.7,8.5,11.1,5.6,18.4c-2.7,6.8-7,9.8-15,9.3c-4.8,11.6-11.1,15-23.2,10.7c-10.6-3.8-21.3-7.9-30.9-13.7
	c-12.6-7.6-18.8-18.3-11.5-35.5c8.5-20,19.3-38.3,35.3-53c11.6-10.6,19.4-11.3,32.8-3.3c14.7,8.9,24.7,22.2,32.9,37
	c0.9,1.8,1.3,3.9,1.3,5.9c0,7.5-3.1,9.3-9.5,5.8c-0.9-0.5-1.8-0.9-2.7-1.3c-2.3-1.4-4.8-2.6-7-4.1c-11.8-8.6-23.5-17.2-35.4-25.8
	c-1.3-1-3.1-1.3-4.6-1.9C869,374,884.3,385.9,902.5,393.8z M841.3,378.3l41.9,31.2C882.9,400.6,850.8,376.7,841.3,378.3L841.3,378.3
	z M829.9,398.6c11.7,13.4,26.2,24.1,42.5,31.3C860.5,416.6,846.1,405.9,829.9,398.6L829.9,398.6z"/>
<path id="_Compound_Path_12" d="M1114.9,392.5l-0.6,0.1l-8.1,2c-0.7-3.9-3.1-8.7-1.7-11.5c9.8-19,22.3-35.9,43.4-43
	c4.1-1.4,9.9-0.6,13.8,1.5c5.8,3.3,11,7.5,15.5,12.5c12.9,14,22.9,30.4,29.4,48.3c5.1,13.6,2.5,23-9,31.8s-24.8,13.7-38.6,16.9
	c-9.3,2.1-15.3-2.2-18-11.5c-16.2-0.9-19.3-9.1-9.6-27.9c-2.7,1.2-4.4,1.9-6,2.8c-4.1,2.4-7.7,2.1-10.7-1.8s-4.5-7.9-1.8-12.4
	c1.4-2.2,3-4.4,4.7-6.4c1.2-0.2,2.3-0.5,3.4-0.9c15.5-8.1,29.6-18.5,41.8-31c0.4-0.4,0.5-1.2,1.2-3.1c-3.4,1.8-5.8,2.7-7.9,4.1
	c-9.3,6.5-18.4,13.1-27.7,19.8L1114.9,392.5z M1190.4,398.8c-14.7,5.4-39.8,24.2-45.9,34.5C1161.7,424.6,1177.3,412.9,1190.4,398.8z
	 M1177.2,376.5c-13.7,4.7-41.9,26.2-45.2,34C1145,405.5,1170.4,386.6,1177.2,376.5z"/>
<path id="_Path_2" d="M1131.4,340.4L1111,360c-67.4-39.6-134.8-39.3-202.3,1c-3-3.3-5.9-6.9-9.2-10.2s-6.8-6.3-10.3-9.5
	C951.2,292.9,1056.4,285.3,1131.4,340.4z"/>
<path id="_Path_3" d="M871.6,332.5c0-9.4,0.2-18.3-0.1-27.2c-0.1-4.2,1.3-5.5,5.4-4.8c10.3,2,20.2,17.4,17.7,27.6
	c-0.9,3.8-11.7,9.2-15.2,7.6C876.7,334.6,873.9,333.5,871.6,332.5z"/>
<path id="_Path_4" d="M1147.5,333.2c-8,4.1-16.6,2.3-22.4-4.8c-0.5-0.6-0.9-1.4-1-2.1c-1.3-9.4,7.5-21.9,16.9-24.4
	c4.6-1.2,6.4,0.3,5.9,5.1c-0.6,4.5-0.9,9-0.9,13.5C1146.2,324.6,1147,328.9,1147.5,333.2z"/>
<polygon id="_Path_5" class="st0" points="1098.2,677.5 1098.3,677.2 1098.5,677.4 "/>
<path id="_Path_6" d="M829.9,398.6c16.2,7.3,30.7,18,42.5,31.3C856.1,422.6,841.6,411.9,829.9,398.6z"/>
<path id="_Path_7" d="M1056,538.1c-1.6,29.1-25.4,51.6-52.8,49.8c-28.1-1.8-49.5-25.8-48.1-53.9c1.3-28,25-49.7,53.1-48.4
	c0.1,0,0.2,0,0.3,0C1035.4,487.1,1057.5,511.5,1056,538.1z"/>
</svg>
